<svg width="1060" height="263" viewBox="0 0 1060 263" fill="none" xmlns="http://www.w3.org/2000/svg">
<path d="M80 80H980" stroke="#9290CA" stroke-width="5"/>
<circle cx="80" cy="80" r="77.5" fill="#272140" stroke="#9290CA" stroke-width="5"/>
<circle cx="530" cy="80" r="77.5" fill="#272140" stroke="#9290CA" stroke-width="5"/>
<circle cx="980" cy="80" r="77.5" fill="#272140" stroke="#9290CA" stroke-width="5"/>
<path d="M44.1234 90V70.3945H51.6702C53.5205 70.3945 55.0107 70.8366 56.1409 71.7207C57.2711 72.6048 57.8363 73.8444 57.8363 75.4395C57.8363 76.3053 57.5993 77.0846 57.1253 77.7773C56.6605 78.4609 56.0954 78.9714 55.43 79.3086C56.4417 79.6823 57.2529 80.2793 57.8636 81.0996C58.4834 81.9199 58.7933 82.9544 58.7933 84.2031C58.7933 86.0078 58.1735 87.4251 56.9339 88.4551C55.6943 89.485 54.0355 90 51.9573 90H44.1234ZM47.7601 86.7734H51.5882C54.0218 86.7734 55.2386 85.8529 55.2386 84.0117C55.2386 82.1432 54.0218 81.209 51.5882 81.209H47.7601V86.7734ZM47.7601 78.0781H51.4241C52.3903 78.0781 53.1195 77.8776 53.6116 77.4766C54.1129 77.0755 54.3636 76.4922 54.3636 75.7266C54.3636 74.9609 54.1129 74.3776 53.6116 73.9766C53.1103 73.5664 52.3629 73.3613 51.3695 73.3613H47.7601V78.0781ZM68.4943 90.2188C66.1427 90.2188 64.2697 89.5853 62.8752 88.3184C61.4897 87.0514 60.797 85.2513 60.797 82.918V70.3945H64.2697V82.9453C64.2697 84.2578 64.6525 85.2604 65.4181 85.9531C66.1838 86.6367 67.2091 86.9785 68.4943 86.9785C69.7795 86.9785 70.8048 86.6367 71.5705 85.9531C72.3452 85.2604 72.7326 84.2578 72.7326 82.9453V70.3945H76.1779V82.918C76.1779 85.2513 75.4806 87.0514 74.0861 88.3184C72.6916 89.5853 70.8276 90.2188 68.4943 90.2188ZM79.248 90V70.3945H82.9395V90H79.248ZM86.1737 90V70.3945H89.8651V86.7734H99.0252V90H86.1737ZM100.482 90V70.3945H106.826C108.193 70.3945 109.474 70.6042 110.668 71.0234C111.871 71.4336 112.933 72.0352 113.853 72.8281C114.783 73.6211 115.517 74.651 116.054 75.918C116.592 77.1849 116.861 78.6113 116.861 80.1973C116.861 81.7832 116.592 83.2096 116.054 84.4766C115.517 85.7435 114.783 86.7734 113.853 87.5664C112.933 88.3594 111.871 88.9655 110.668 89.3848C109.474 89.7949 108.193 90 106.826 90H100.482ZM104.146 86.7734H106.498C107.2 86.7734 107.86 86.7051 108.48 86.5684C109.109 86.4225 109.711 86.1855 110.285 85.8574C110.859 85.5202 111.351 85.1055 111.761 84.6133C112.172 84.112 112.495 83.4876 112.732 82.7402C112.978 81.9837 113.101 81.1361 113.101 80.1973C113.101 79.0306 112.919 78.0098 112.554 77.1348C112.19 76.2598 111.688 75.5716 111.05 75.0703C110.422 74.569 109.724 74.1999 108.959 73.9629C108.202 73.7168 107.382 73.5938 106.498 73.5938H104.146V86.7734Z" fill="#9290CA"/>
<path d="M505.106 90V73.5938H499.158V70.3945H514.703V73.5938H508.797V90H505.106ZM516.201 90V70.3945H529.217V73.5938H519.865V78.3516H527.371V81.5508H519.865V86.7734H529.518V90H516.201ZM538.084 90.2188C535.869 90.2188 534.083 89.6035 532.725 88.373C531.366 87.1426 530.637 85.4928 530.537 83.4238H534.092C534.192 84.5267 534.588 85.4017 535.281 86.0488C535.983 86.6868 536.917 87.0059 538.084 87.0059C539.178 87.0059 540.044 86.7871 540.682 86.3496C541.329 85.9121 541.652 85.2695 541.652 84.4219C541.652 83.9753 541.529 83.5924 541.283 83.2734C541.046 82.9453 540.723 82.681 540.312 82.4805C539.911 82.2799 539.447 82.1022 538.918 81.9473C538.398 81.7923 537.847 81.6419 537.264 81.4961C536.68 81.3503 536.097 81.1908 535.514 81.0176C534.93 80.8353 534.374 80.5983 533.846 80.3066C533.326 80.015 532.861 79.6777 532.451 79.2949C532.05 78.903 531.726 78.3971 531.48 77.7773C531.243 77.1484 531.125 76.4329 531.125 75.6309C531.125 74.0176 531.749 72.7051 532.998 71.6934C534.256 70.6816 535.878 70.1758 537.865 70.1758C539.934 70.1758 541.616 70.7272 542.91 71.8301C544.204 72.9238 544.893 74.3867 544.975 76.2188H541.447C541.365 75.3529 541.005 74.6602 540.367 74.1406C539.729 73.6211 538.895 73.3613 537.865 73.3613C536.908 73.3613 536.147 73.571 535.582 73.9902C535.017 74.4004 534.734 74.9473 534.734 75.6309C534.734 76.0866 534.853 76.4831 535.09 76.8203C535.336 77.1484 535.664 77.4128 536.074 77.6133C536.493 77.8047 536.967 77.9733 537.496 78.1191C538.034 78.265 538.594 78.4062 539.178 78.543C539.77 78.6797 540.358 78.8346 540.941 79.0078C541.534 79.1719 542.094 79.3952 542.623 79.6777C543.161 79.9603 543.635 80.2975 544.045 80.6895C544.464 81.0723 544.792 81.5781 545.029 82.207C545.275 82.8359 545.398 83.556 545.398 84.3672C545.398 86.1628 544.724 87.5892 543.375 88.6465C542.026 89.6947 540.262 90.2188 538.084 90.2188ZM551.23 90V73.5938H545.283V70.3945H560.828V73.5938H554.922V90H551.23Z" fill="#9290CA"/>
<path d="M936.983 90V70.3945H944.981C946.995 70.3945 948.586 70.9551 949.752 72.0762C950.919 73.1882 951.502 74.6465 951.502 76.4512C951.502 78.3561 950.627 79.7643 948.877 80.6758C949.543 81.0951 950.08 81.6602 950.491 82.3711C950.901 83.082 951.138 83.8796 951.202 84.7637L951.68 90H948.002L947.537 85.1875C947.483 84.431 947.214 83.8158 946.731 83.3418C946.248 82.8678 945.637 82.6309 944.899 82.6309H940.674V90H936.983ZM940.674 79.4453H944.817C945.847 79.4453 946.617 79.1628 947.127 78.5977C947.638 78.0234 947.893 77.3079 947.893 76.4512C947.893 75.5944 947.638 74.8926 947.127 74.3457C946.617 73.7897 945.847 73.5117 944.817 73.5117H940.674V79.4453ZM954.272 90V70.3945H967.287V73.5938H957.936V78.3516H965.442V81.5508H957.936V86.7734H967.588V90H954.272ZM969.756 90V70.3945H982.772V73.5938H973.42V78.5703H980.926V81.7695H973.42V90H969.756ZM984.475 90V70.3945H988.166V90H984.475ZM991.4 90V70.3945H995.365L1003.88 84.2305V70.3945H1007.55V90H1003.57L995.064 76.1914V90H991.4ZM1010.79 90V70.3945H1023.81V73.5938H1014.46V78.3516H1021.96V81.5508H1014.46V86.7734H1024.11V90H1010.79Z" fill="#9290CA"/>
<path d="M525 159V159C525 214.781 570.219 260 626 260H755H884C939.781 260 985 214.781 985 159V159" stroke="#9290CA" stroke-width="5"/>
</svg>
